<?xml version="1.0" standalone="no"?>
<svg id="Vector" width="92" height="92" viewBox="0 0 92 92" fill="#272731" xmlns="http://www.w3.org/2000/svg" style="max-width: 100%; max-height: 100%;">
<path d="M70.6801 78.9955C70.6801 72.1069 65.0957 66.5225 58.2071 66.5225H33.2612C26.3725 66.5225 20.7882 72.1069 20.7882 78.9955M87.3107 45.7342C87.3107 68.6963 68.6963 87.3108 45.7342 87.3108C22.7721 87.3108 4.15759 68.6963 4.15759 45.7342C4.15759 22.7721 22.7721 4.15765 45.7342 4.15765C68.6963 4.15765 87.3107 22.7721 87.3107 45.7342ZM62.3648 37.4189C62.3648 46.6037 54.919 54.0495 45.7341 54.0495C36.5493 54.0495 29.1035 46.6037 29.1035 37.4189C29.1035 28.2341 36.5493 20.7883 45.7341 20.7883C54.919 20.7883 62.3648 28.2341 62.3648 37.4189Z" stroke="white"  stroke-width="8" stroke-dasharray="429.91461181640625,0,0,0"><animate attributeType="XML" begin="mouseover" attributeName="stroke-dasharray" repeatCount="1" dur="2.5s"
from="0,0,0,429.91461181640625"
          to="429.91461181640625,0,0,0" fill="freeze"></animate></path>
<setting>{"type":"direct","speed":20,"random":1,"shift":1,"size":1,"rupture":50}</setting></svg>